<?xml version="1.0" encoding="UTF-8" standalone="no"?>
<!-- Created with Inkscape (http://www.inkscape.org/) -->
<svg id="svg2" xmlns:rdf="http://www.w3.org/1999/02/22-rdf-syntax-ns#" xmlns="http://www.w3.org/2000/svg" height="98" width="418" version="1.0" xmlns:cc="http://creativecommons.org/ns#" xmlns:xlink="http://www.w3.org/1999/xlink" viewbox="0 0 418 98" xmlns:dc="http://purl.org/dc/elements/1.1/">
 <defs id="defs4">
  <filter id="filter7743" color-interpolation-filters="sRGB">
   <feGaussianBlur id="feGaussianBlur7745" stdDeviation="0.29512732"/>
  </filter>
  <linearGradient id="linearGradient7985">
   <stop id="stop7987" stop-color="#80a6d8" offset="0"/>
   <stop id="stop7991" stop-color="#42699a" offset="0.29167"/>
   <stop id="stop7989" stop-color="#99b8e1" offset="1"/>
  </linearGradient>
  <linearGradient id="linearGradient10170" y2="14845" xlink:href="#linearGradient7985" gradientUnits="userSpaceOnUse" x2="2128.6" gradientTransform="matrix(-0.3354253,0,0,0.3324045,1784.9326,-5981.1768)" y1="15027" x1="2128.6"/>
  <filter id="filter10425" height="1.3428996" width="1.0498037" color-interpolation-filters="sRGB" y="-0.17144978" x="-0.024901833">
   <feGaussianBlur id="feGaussianBlur10427" stdDeviation="3.0594603"/>
  </filter>
  <filter id="filter10501" height="1.2913079" width="1.2491627" color-interpolation-filters="sRGB" y="-0.14565393" x="-0.12458134">
   <feGaussianBlur id="feGaussianBlur10503" stdDeviation="4.6081142"/>
  </filter>
 </defs>
 <metadata id="metadata7">
  <rdf:RDF>
   <cc:Work rdf:about="">
    <dc:format>image/svg+xml</dc:format>
    <dc:type rdf:resource="http://purl.org/dc/dcmitype/StillImage"/>
    <dc:title/>
   </cc:Work>
   <cc:Work rdf:about="">
    <dc:format>image/svg+xml</dc:format>
    <dc:type rdf:resource="http://purl.org/dc/dcmitype/StillImage"/>
   </cc:Work>
  </rdf:RDF>
 </metadata>
 <g id="layer1" transform="translate(-126.56396,-124.66094)">
  <rect id="rect6284" style="enable-background:accumulate;" fill-rule="nonzero" height="48" width="48" display="none" y="-2051.1" x="-1661.8" fill="#eeeeec"/>
  <rect id="rect6592" style="enable-background:accumulate;" fill-rule="nonzero" height="32" width="32" display="none" y="-1975.1" x="-1654.9" fill="#eeeeec"/>
  <rect id="rect6749" style="enable-background:accumulate;" fill-rule="nonzero" height="22" width="22" display="none" y="-1924.1" x="-1654.9" fill="#eeeeec"/>
  <rect id="rect6833" style="enable-background:accumulate;" fill-rule="nonzero" height="16" width="16" display="none" y="-1882.1" x="-1654.9" fill="#eeeeec"/>
  <rect id="rect8104" style="enable-background:accumulate;" fill-rule="nonzero" height="24" width="24" display="none" y="-1925.1" x="-1630.9" fill="#eeeeec"/>
  <g id="text9929" style="writing-mode:lr-tb;text-anchor:start;text-align:start;" font-weight="bold" transform="scale(1.0051337,0.99489251)" line-height="50%" font-stretch="normal" font-size="46.90373993px" font-variant="normal" font-style="normal" font-family="Sans" fill="#FFF">
   <path id="path8977" d="m239.73,190.86,0-33.575,6.6874,0,7.9471,23.772c0.73285,2.2139,1.2672,3.8705,1.6032,4.9698,0.38169-1.2214,0.97714-3.0155,1.7864-5.382l8.0387-23.36h5.9775v33.575h-4.2827v-28.101l-9.7564,28.101h-4.0079l-9.7105-28.582v28.582z"/>
   <path id="path8979" d="m276.92,178.69c0-4.5041,1.252-7.8402,3.756-10.008,2.0917-1.8016,4.6415-2.7024,7.6493-2.7025,3.3437,0.00002,6.0767,1.0955,8.199,3.2865,2.1222,2.191,3.1834,5.2179,3.1834,9.0807-0.00003,3.13-0.46952,5.592-1.4085,7.386-0.93901,1.794-2.3055,3.1872-4.0995,4.1796-1.794,0.99243-3.7522,1.4886-5.8744,1.4886-3.4048,0-6.1569-1.0917-8.2562-3.275-2.0994-2.1833-3.149-5.3286-3.149-9.4357zm4.2369,0c-0.00001,3.1147,0.67943,5.4469,2.0383,6.9966,1.3588,1.5497,3.0689,2.3246,5.1301,2.3246,2.0459,0,3.7483-0.77867,5.1072-2.336,1.3588-1.5573,2.0383-3.9315,2.0383-7.1226-0.00003-3.0078-0.68327-5.2866-2.0498-6.8363s-3.0651-2.3246-5.0958-2.3246c-2.0612,0.00002-3.7712,0.77106-5.1301,2.3131-1.3589,1.5421-2.0383,3.8705-2.0383,6.9852z"/>
   <path id="path8981" d="m304.56,190.86,0-24.322,3.7102,0,0,3.4582c1.7864-2.6719,4.3667-4.0079,7.741-4.0079,1.4657,0.00002,2.8131,0.2634,4.0422,0.79012,1.2291,0.52678,2.149,1.2177,2.7597,2.0726,0.6107,0.85504,1.0382,1.8704,1.2825,3.046,0.15266,0.76342,0.229,2.0994,0.22903,4.0079v14.955h-4.1224v-14.795c-0.00002-1.6795-0.16034-2.9353-0.48095-3.7674-0.32065-0.8321-0.88939-1.4963-1.7062-1.9925-0.81686-0.49619-1.7749-0.7443-2.8742-0.74432-1.7558,0.00002-3.2712,0.55731-4.5461,1.6719s-1.9124,3.2292-1.9123,6.3439v13.283z"/>
   <path id="path8983" d="m329.14,178.69c0-4.5041,1.252-7.8402,3.756-10.008,2.0917-1.8016,4.6415-2.7024,7.6493-2.7025,3.3437,0.00002,6.0767,1.0955,8.199,3.2865,2.1222,2.191,3.1834,5.2179,3.1834,9.0807-0.00003,3.13-0.46952,5.592-1.4085,7.386-0.93901,1.794-2.3055,3.1872-4.0995,4.1796-1.794,0.99243-3.7522,1.4886-5.8744,1.4886-3.4048,0-6.1569-1.0917-8.2562-3.275-2.0994-2.1833-3.1491-5.3286-3.1491-9.4357zm4.2369,0c0,3.1147,0.67943,5.4469,2.0383,6.9966,1.3588,1.5497,3.0689,2.3246,5.1301,2.3246,2.0459,0,3.7483-0.77867,5.1072-2.336,1.3588-1.5573,2.0383-3.9315,2.0383-7.1226-0.00002-3.0078-0.68327-5.2866-2.0498-6.8363s-3.0651-2.3246-5.0957-2.3246c-2.0612,0.00002-3.7712,0.77106-5.1301,2.3131-1.3589,1.5421-2.0383,3.8705-2.0383,6.9852z"/>
   <path id="path8985" d="m357.08,157.28,12.39,0c2.794,0.00004,4.924,0.21379,6.3897,0.64127,1.9696,0.58022,3.6567,1.6108,5.0614,3.0918,1.4046,1.481,2.4734,3.2941,3.2063,5.4393,0.73284,2.1452,1.0993,4.7904,1.0993,7.9356-0.00003,2.7636-0.34356,5.1454-1.0306,7.1455-0.83978,2.4429-2.0383,4.4201-3.5956,5.9317-1.1757,1.1451-2.7636,2.0383-4.7637,2.6796-1.4963,0.47332-3.4964,0.70997-6.0004,0.70997h-12.757zm6.779,5.6798,0,22.238,5.0614,0c1.8932,0,3.2597-0.10688,4.0995-0.32064,1.0993-0.27482,2.0116-0.74049,2.7368-1.397,0.72521-0.65652,1.3168-1.7367,1.7749-3.2407,0.45802-1.5039,0.68704-3.5536,0.68706-6.1492-0.00002-2.5956-0.22904-4.5881-0.68706-5.9775-0.45807-1.3894-1.0993-2.4734-1.9238-3.2521-0.8245-0.77865-1.8704-1.3054-3.1376-1.5803-0.94665-0.21372-2.8017-0.3206-5.5652-0.32063z"/>
   <path id="path8987" d="m405.03,183.12,6.4126,1.0764c-0.8245,2.3513-2.1261,4.1415-3.9048,5.3706-1.7788,1.2291-4.0041,1.8436-6.676,1.8436-4.2293,0-7.3592-1.3818-9.3899-4.1453-1.6032-2.2139-2.4047-5.008-2.4047-8.3822,0-4.0308,1.0535-7.1875,3.1605-9.4701s4.7713-3.4239,7.9929-3.4239c3.6185,0.00002,6.4737,1.1948,8.5654,3.5842,2.0917,2.3895,3.0918,6.05,3.0002,10.982h-16.123c0.0458,1.9085,0.56491,3.3934,1.5574,4.4545,0.99242,1.0611,2.2291,1.5917,3.7102,1.5917,1.0077,0.00001,1.8551-0.27482,2.5422-0.82448,0.68705-0.54965,1.2062-1.4352,1.5574-2.6567zm0.36643-6.5042c-0.0458-1.8627-0.52677-3.2788-1.4428-4.2484-0.9161-0.9695-2.0307-1.4543-3.3437-1.4543-1.4047,0.00002-2.5651,0.5115-3.4811,1.5344-0.91609,1.023-1.3665,2.4124-1.3512,4.1682z"/>
   <path id="path8989" d="m423.75,190.86-9.8022-24.322,6.7562,0,4.5804,12.413,1.3283,4.1453c0.35115-1.0535,0.57254-1.7482,0.66416-2.0841,0.21374-0.68706,0.44277-1.3741,0.68707-2.0612l4.6262-12.413h6.6187l-9.6647,24.322z"/>
   <path id="path8991" d="m457.25,183.12,6.4126,1.0764c-0.8245,2.3513-2.1261,4.1415-3.9048,5.3706-1.7788,1.2291-4.0041,1.8436-6.676,1.8436-4.2293,0-7.3592-1.3818-9.3899-4.1453-1.6032-2.2139-2.4047-5.008-2.4047-8.3822,0-4.0308,1.0535-7.1875,3.1605-9.4701s4.7713-3.4239,7.9929-3.4239c3.6185,0.00002,6.4737,1.1948,8.5654,3.5842,2.0917,2.3895,3.0918,6.05,3.0002,10.982h-16.123c0.0458,1.9085,0.56491,3.3934,1.5574,4.4545,0.99242,1.0611,2.2291,1.5917,3.7102,1.5917,1.0077,0.00001,1.8551-0.27482,2.5421-0.82448,0.68705-0.54965,1.2062-1.4352,1.5574-2.6567zm0.36644-6.5042c-0.0458-1.8627-0.52677-3.2788-1.4428-4.2484-0.9161-0.9695-2.0307-1.4543-3.3437-1.4543-1.4047,0.00002-2.5651,0.5115-3.4811,1.5344-0.9161,1.023-1.3665,2.4124-1.3512,4.1682z"/>
   <path id="path8993" d="m469.28,190.86,0-33.575,6.4355,0,0,33.575z"/>
   <path id="path8995" d="m480.8,178.35c0-2.1375,0.52675-4.2064,1.5802-6.2065,1.0535-2.0001,2.546-3.5269,4.4774-4.5804s4.088-1.5802,6.4699-1.5802c3.6796,0.00002,6.6951,1.1948,9.0464,3.5842,2.3513,2.3895,3.5269,5.4088,3.5269,9.0578-0.00003,3.6796-1.1871,6.7294-3.5613,9.1494s-5.363,3.63-8.9662,3.63c-2.2292,0-4.3552-0.50385-6.3783-1.5116-2.023-1.0077-3.5613-2.4849-4.6148-4.4316s-1.5802-4.3171-1.5802-7.1111zm6.5958,0.34354c-0.00001,2.4124,0.57254,4.2598,1.7177,5.5423,1.1451,1.2825,2.5574,1.9238,4.2369,1.9238s3.088-0.64126,4.2255-1.9238,1.7062-3.1452,1.7062-5.5881c-0.00002-2.3818-0.56876-4.214-1.7062-5.4965-1.1375-1.2825-2.546-1.9238-4.2255-1.9238-1.6795,0.00002-3.0918,0.64128-4.2369,1.9238s-1.7177,3.13-1.7177,5.5423z"/>
   <path id="path8997" d="m510.77,166.53,6.0004,0,0,3.5727c0.77867-1.2214,1.8322-2.2138,3.1605-2.9773,1.3283-0.76339,2.8017-1.1451,4.4201-1.1451,2.8246,0.00002,5.2217,1.107,7.1913,3.3208,1.9696,2.2139,2.9544,5.2981,2.9544,9.2525-0.00003,4.0613-0.99246,7.218-2.9773,9.4701-1.9849,2.252-4.3896,3.3781-7.2142,3.3781-1.3436,0-2.5612-0.2672-3.6529-0.80158-1.0917-0.53439-2.2406-1.4505-3.4468-2.7483v12.253h-6.4355zm6.3668,11.749c-0.00001,2.733,0.54201,4.7522,1.626,6.0576s2.4047,1.9582,3.9621,1.9581c1.4963,0.00001,2.7406-0.59927,3.7331-1.7978,0.99241-1.1985,1.4886-3.1643,1.4886-5.8973-0.00002-2.5498-0.5115-4.443-1.5344-5.6798-1.023-1.2367-2.2902-1.8551-3.8018-1.8551-1.5726,0.00002-2.8781,0.60693-3.9163,1.8207s-1.5574,3.0117-1.5574,5.3935z"/>
  </g>
  <g id="text10175" opacity="0.69230772" style="writing-mode:lr-tb;text-anchor:start;text-align:start;" font-weight="bold" transform="matrix(1.0051337,0,0,0.9948925,-888.95229,1197.8579)" line-height="50%" filter="url(#filter10425)" font-stretch="normal" font-size="46.90373993px" font-variant="normal" font-style="normal" font-family="Sans" fill="#FFF">
   <path id="path8954" d="m1124.1-1013.2,0-33.575,6.6875,0,7.947,23.772c0.7329,2.2139,1.2673,3.8705,1.6032,4.9698,0.3817-1.2214,0.9771-3.0154,1.7864-5.382l8.0386-23.36h5.9775v33.575h-4.2827v-28.101l-9.7563,28.101h-4.0079l-9.7106-28.582v28.582z"/>
   <path id="path8956" d="m1161.3-1025.3c0-4.5041,1.252-7.8402,3.756-10.008,2.0917-1.8016,4.6415-2.7024,7.6493-2.7024,3.3437,0,6.0767,1.0955,8.199,3.2864,2.1223,2.191,3.1834,5.2179,3.1834,9.0808,0,3.1299-0.4695,5.5919-1.4085,7.3859s-2.3055,3.1873-4.0995,4.1797-3.7521,1.4886-5.8744,1.4886c-3.4048,0-6.1569-1.0916-8.2562-3.275-2.0994-2.1833-3.1491-5.3286-3.1491-9.4357zm4.2369,0c0,3.1147,0.6794,5.4469,2.0383,6.9966s3.0689,2.3246,5.1301,2.3246c2.0459,0,3.7483-0.7787,5.1072-2.336,1.3589-1.5574,2.0383-3.9316,2.0383-7.1226,0-3.0078-0.6833-5.2866-2.0497-6.8363-1.3666-1.5497-3.0651-2.3246-5.0958-2.3246-2.0612,0-3.7712,0.7711-5.1301,2.3131-1.3589,1.5421-2.0383,3.8705-2.0383,6.9852z"/>
   <path id="path8958" d="m1189-1013.2,0-24.322,3.7101,0,0,3.4583c1.7864-2.6719,4.3667-4.0079,7.741-4.0079,1.4657,0,2.8131,0.2634,4.0422,0.7901,1.2291,0.5268,2.149,1.2176,2.7597,2.0726,0.6108,0.8551,1.0383,1.8704,1.2826,3.046,0.1526,0.7635,0.229,2.0994,0.229,4.0079v14.955h-4.1224v-14.795c0-1.6794-0.1603-2.9352-0.481-3.7674-0.3206-0.8321-0.8893-1.4962-1.7062-1.9925-0.8168-0.4962-1.7749-0.7443-2.8742-0.7443-1.7558,0-3.2712,0.5573-4.5461,1.6719s-1.9123,3.2292-1.9123,6.3439v13.283z"/>
   <path id="path8960" d="m1213.5-1025.3c0-4.5041,1.2519-7.8402,3.7559-10.008,2.0918-1.8016,4.6415-2.7024,7.6494-2.7024,3.3437,0,6.0767,1.0955,8.199,3.2864,2.1222,2.191,3.1833,5.2179,3.1834,9.0808-0.0001,3.1299-0.4696,5.5919-1.4085,7.3859-0.939,1.794-2.3055,3.1873-4.0995,4.1797s-3.7522,1.4886-5.8744,1.4886c-3.4048,0-6.1569-1.0916-8.2563-3.275-2.0994-2.1833-3.149-5.3286-3.149-9.4357zm4.2369,0c0,3.1147,0.6794,5.4469,2.0383,6.9966,1.3588,1.5497,3.0689,2.3246,5.1301,2.3246,2.0459,0,3.7483-0.7787,5.1072-2.336,1.3588-1.5574,2.0382-3.9316,2.0383-7.1226-0.0001-3.0078-0.6833-5.2866-2.0498-6.8363s-3.0651-2.3246-5.0957-2.3246c-2.0612,0-3.7713,0.7711-5.1301,2.3131-1.3589,1.5421-2.0383,3.8705-2.0383,6.9852z"/>
   <path id="path8962" d="m1241.5-1046.7,12.39,0c2.794,0.0001,4.9239,0.2138,6.3897,0.6413,1.9695,0.5802,3.6567,1.6108,5.0614,3.0918,1.4046,1.481,2.4734,3.2941,3.2063,5.4393,0.7328,2.1452,1.0993,4.7904,1.0993,7.9356,0,2.7635-0.3436,5.1454-1.0306,7.1455-0.8398,2.4429-2.0383,4.4201-3.5957,5.9316-1.1756,1.1452-2.7635,2.0383-4.7636,2.6796-1.4963,0.4733-3.4964,0.71-6.0004,0.71h-12.756zm6.779,5.6798,0,22.238,5.0614,0c1.8932,0,3.2597-0.1068,4.0995-0.3206,1.0993-0.2748,2.0116-0.7405,2.7368-1.397,0.7252-0.6566,1.3169-1.7368,1.7749-3.2407,0.4581-1.5039,0.6871-3.5537,0.6871-6.1493,0-2.5955-0.229-4.588-0.6871-5.9774-0.458-1.3894-1.0993-2.4734-1.9237-3.2521-0.8245-0.7787-1.8704-1.3054-3.1376-1.5803-0.9467-0.2137-2.8018-0.3206-5.5653-0.3206z"/>
   <path id="path8964" d="m1289.4-1020.9,6.4126,1.0764c-0.8245,2.3513-2.1261,4.1415-3.9048,5.3706-1.7788,1.2291-4.0041,1.8436-6.676,1.8436-4.2293,0-7.3593-1.3817-9.3899-4.1453-1.6032-2.2139-2.4047-5.0079-2.4047-8.3822,0-4.0308,1.0535-7.1874,3.1605-9.4701,2.107-2.2825,4.7713-3.4238,7.9928-3.4238,3.6186,0,6.4737,1.1947,8.5655,3.5842,2.0917,2.3894,3.0917,6.05,3.0002,10.982h-16.123c0.046,1.9085,0.5649,3.3933,1.5573,4.4545,0.9925,1.0611,2.2292,1.5917,3.7102,1.5917,1.0077,0,1.8551-0.2749,2.5422-0.8245,0.687-0.5497,1.2061-1.4352,1.5573-2.6567zm0.3664-6.5042c-0.046-1.8627-0.5267-3.2788-1.4428-4.2484-0.9161-0.9695-2.0307-1.4542-3.3437-1.4543-1.4047,0.0001-2.5651,0.5115-3.4812,1.5345s-1.3665,2.4124-1.3512,4.1682z"/>
   <path id="path8966" d="m1308.2-1013.2-9.8021-24.322,6.7561,0,4.5805,12.413,1.3283,4.1453c0.3511-1.0535,0.5725-1.7482,0.6642-2.0841,0.2137-0.687,0.4427-1.3741,0.687-2.0612l4.6263-12.413h6.6187l-9.6647,24.322z"/>
   <path id="path8968" d="m1341.7-1020.9,6.4126,1.0764c-0.8245,2.3513-2.1261,4.1415-3.9048,5.3706-1.7788,1.2291-4.0041,1.8436-6.676,1.8436-4.2293,0-7.3593-1.3817-9.39-4.1453-1.6031-2.2139-2.4047-5.0079-2.4047-8.3822,0-4.0308,1.0535-7.1874,3.1605-9.4701,2.107-2.2825,4.7713-3.4238,7.9929-3.4238,3.6185,0,6.4737,1.1947,8.5654,3.5842,2.0917,2.3894,3.0918,6.05,3.0002,10.982h-16.123c0.046,1.9085,0.5649,3.3933,1.5573,4.4545,0.9924,1.0611,2.2291,1.5917,3.7102,1.5917,1.0076,0,1.855-0.2749,2.5421-0.8245,0.6871-0.5497,1.2062-1.4352,1.5574-2.6567zm0.3664-6.5042c-0.046-1.8627-0.5268-3.2788-1.4428-4.2484-0.9161-0.9695-2.0307-1.4542-3.3438-1.4543-1.4046,0.0001-2.565,0.5115-3.4811,1.5345s-1.3665,2.4124-1.3512,4.1682z"/>
   <path id="path8970" d="m1353.7-1013.2,0-33.575,6.4355,0,0,33.575z"/>
   <path id="path8972" d="m1365.2-1025.7c0-2.1376,0.5268-4.2064,1.5803-6.2065s2.5459-3.527,4.4774-4.5805c1.9314-1.0535,4.088-1.5802,6.4698-1.5802,3.6796,0,6.6951,1.1947,9.0464,3.5842,2.3513,2.3894,3.5269,5.4087,3.527,9.0578-0.0001,3.6796-1.1872,6.7294-3.5613,9.1494-2.3743,2.42-5.363,3.63-8.9663,3.63-2.2291,0-4.3552-0.5038-6.3782-1.5115-2.0231-1.0077-3.5613-2.4849-4.6148-4.4316s-1.5803-4.3171-1.5803-7.1111zm6.5959,0.3435c0,2.4124,0.5725,4.2598,1.7176,5.5423,1.1451,1.2826,2.5574,1.9238,4.2369,1.9238s3.088-0.6412,4.2255-1.9238c1.1375-1.2825,1.7062-3.1452,1.7062-5.5881,0-2.3818-0.5687-4.214-1.7062-5.4965s-2.546-1.9238-4.2255-1.9238-3.0918,0.6413-4.2369,1.9238-1.7176,3.1299-1.7176,5.5423z"/>
   <path id="path8974" d="m1395.2-1037.5,6.0004,0,0,3.5728c0.7787-1.2215,1.8322-2.2139,3.1605-2.9773s2.8017-1.1451,4.4202-1.1451c2.8245,0,5.2216,1.1069,7.1912,3.3208s2.9544,5.298,2.9544,9.2525c0,4.0613-0.9924,7.218-2.9773,9.47-1.9848,2.2521-4.3896,3.3781-7.2142,3.3781-1.3436,0-2.5612-0.2672-3.6529-0.8016-1.0916-0.5343-2.2406-1.4504-3.4467-2.7482v12.253h-6.4356zm6.3669,11.749c-0.0001,2.733,0.542,4.7522,1.626,6.0576s2.4047,1.9581,3.9621,1.9581c1.4963,0,2.7406-0.5992,3.7331-1.7978,0.9924-1.1985,1.4886-3.1643,1.4886-5.8973,0-2.5498-0.5115-4.443-1.5344-5.6798-1.023-1.2367-2.2903-1.855-3.8018-1.855-1.5726,0-2.8781,0.6069-3.9163,1.8207s-1.5574,3.0116-1.5573,5.3935z"/>
  </g>
  <g id="g10455" fill-rule="evenodd" transform="translate(-888.95229,1197.8579)" filter="url(#filter10501)">
   <path id="path10457" stroke-linejoin="miter" d="m1102.3-1060.9c-5.6442,2.3177-23.744,9.865-24.195,10.053-5.0638-4.1354-11.65-7.3485-18.472-7.7119-16.547-1.0406-31.766,13.654-31.814,29.956-0.7264,14.676,5.9719,28.25,12.023,41.217,5.0624-2.1121,23.471-9.7848,23.935-9.979,4.9699,4.1532,11.335,7.2137,17.97,7.6933,16.282,1.3662,31.414-12.7,32.241-28.618,1.1818-14.89-5.6824-28.664-11.447-41.979-0.084-0.2077-0.1577-0.4241-0.2416-0.6318z" stroke="#3b6aa3" stroke-linecap="butt" stroke-miterlimit="4" stroke-dasharray="none" stroke-width="2.41577864" fill="url(#linearGradient10170)"/>
   <path id="path10459" d="m1043.6-996.93c-3.5708-8.6438-8.3048-16.261-8.41-30.378-0.1087-14.585,12.402-24.028,22.291-24.029,11.972,0,22.505,10.109,23.061,18.483,0.5013,7.5572-2.188,18.548-16.069,18.466-6.6277-0.038-13.515-5.8042-13.551-14.382-0.039-9.2567,11.557-10.16,14.481-7.8031,1.1359,0.9153,1.1012,2.7268,0.096,2.3997-6.2436-2.0329-10.101,1.9737-9.8144,5.9597,0.3889,5.4084,3.5976,8.6262,9.3494,8.8999,8.297,0.3941,10.62-7.6752,10.408-10.95-0.2577-3.9818-3.7295-12.172-14.529-13.668-5.0992-0.7057-9.3254,0.8216-12.412,3.8145-3.087,2.9932-4.8225,6.0883-5.076,11.166-0.2623,5.2514,0.8843,8.3328,4.0251,15.223,1.1219,2.4607,4.2557,7.4253,6.6826,12.397l-10.532,4.4026z" fill="#eeeeec"/>
   <path id="path10461" opacity="0.77380952" d="m-854.97-180.31c1.7738,4.294,4.1252,8.0777,4.1775,15.09,0.054,7.2449-6.1608,11.935-11.073,11.936-5.9468,0.001-11.179-5.0211-11.455-9.1804-0.24898-3.7543,1.0868-9.214,7.9818-9.1732,3.2922,0.0191,6.7131,2.8832,6.7312,7.1441,0.0195,4.5979-5.7406,5.0468-7.1932,3.8761-0.56422-0.4547-0.547-1.3544-0.0478-1.192,3.1014,1.0099,5.0174-0.98052,4.8751-2.9604-0.19315-2.6865-1.787-4.2846-4.6441-4.4206-4.1214-0.19577-5.2752,3.8126-5.1698,5.4392,0.12804,1.9779,1.8526,6.0463,7.2171,6.7889,2.533,0.35069,4.6322-0.40799,6.1656-1.8947,1.5334-1.487,2.3955-3.0244,2.5214-5.546,0.13026-2.6087-0.43928-4.1392-1.9995-7.5617-0.55728-1.2227-2.114-3.6882-3.3194-6.158l5.2316-2.1872z" transform="matrix(2.0131488,0,0,2.0131488,2819.7758,-685.76448)" filter="url(#filter7743)" fill="#33649d"/>
   <path id="path10463" d="m1098.3-1051.3c3.5708,8.6444,8.3047,16.262,8.41,30.379,0.1087,14.585-12.402,24.028-22.291,24.028-11.972,0.002-22.505-10.108-23.061-18.482-0.5012-7.558,2.188-18.549,16.069-18.467,6.6278,0.039,13.515,5.8042,13.551,14.382,0.039,9.2563-11.557,10.16-14.481,7.8031-1.1358-0.9154-1.1011-2.7265-0.096-2.3998,6.2436,2.0332,10.101-1.9739,9.8143-5.9597-0.3888-5.4084-3.5975-8.6256-9.3493-8.8992-8.297-0.3942-10.62,7.6753-10.408,10.95,0.2578,3.9818,3.7295,12.172,14.529,13.667,5.0992,0.706,9.3253-0.8214,12.412-3.8143,3.087-2.9934,4.8225-6.0885,5.076-11.165,0.2623-5.2518-0.8843-8.3328-4.0252-15.223-1.1219-2.4615-4.2557-7.425-6.6825-12.397l10.532-4.4032z" fill="#a9c4e3"/>
   <path id="path10465" fill="#eeeeec" d="m1057.5-1051.4c-9.8882,0-22.379,9.447-22.27,24.032,0.1052,14.117,4.8593,21.742,8.43,30.386l10.506-4.4038c-0.9381-1.9216-1.9645-3.7608-2.9569-5.5362h-2.3277v-4.215c-0.5718-1.0301-1.0691-1.9515-1.384-2.6422-3.1409-6.89-4.2885-9.973-4.0263-15.224,0.2536-5.0771,2.0089-8.1421,5.0958-11.135,3.087-2.9929,7.2942-4.5433,12.393-3.8376,5.1071,0.7076,8.556,2.9248,10.821,5.4733h2.139v3.1455c0.9737,1.8798,1.4859,3.6914,1.5728,5.0329,0.094,1.455-0.3647,3.8544-1.5728,6.0394v7.4864c5.7379-3.6324,7.0248-10.735,6.6686-16.105-0.5555-8.374-11.116-18.497-23.088-18.496z"/>
   <path id="path10467" stroke-linejoin="miter" d="m1102.3-1060.9c-5.6442,2.3177-23.744,9.865-24.195,10.053-5.0638-4.1354-11.65-7.3485-18.472-7.7119-16.547-1.0406-31.766,13.654-31.814,29.956-0.7264,14.676,5.9719,28.25,12.023,41.217,5.0624-2.1121,23.471-9.7848,23.935-9.979,4.9699,4.1532,11.335,7.2137,17.97,7.6933,16.282,1.3662,31.414-12.7,32.241-28.618,1.1818-14.89-5.6824-28.664-11.447-41.979-0.084-0.2077-0.1577-0.4241-0.2416-0.6318z" stroke="#3b6aa3" stroke-linecap="butt" stroke-miterlimit="4" stroke-dasharray="none" stroke-width="2.41577864" fill="url(#linearGradient10170)"/>
   <path id="path10469" d="m1043.6-996.93c-3.5708-8.6438-8.3048-16.261-8.41-30.378-0.1087-14.585,12.402-24.028,22.291-24.029,11.972,0,22.505,10.109,23.061,18.483,0.5013,7.5572-2.188,18.548-16.069,18.466-6.6277-0.038-13.515-5.8042-13.551-14.382-0.039-9.2567,11.557-10.16,14.481-7.8031,1.1359,0.9153,1.1012,2.7268,0.096,2.3997-6.2436-2.0329-10.101,1.9737-9.8144,5.9597,0.3889,5.4084,3.5976,8.6262,9.3494,8.8999,8.297,0.3941,10.62-7.6752,10.408-10.95-0.2577-3.9818-3.7295-12.172-14.529-13.668-5.0992-0.7057-9.3254,0.8216-12.412,3.8145-3.087,2.9932-4.8225,6.0883-5.076,11.166-0.2623,5.2514,0.8843,8.3328,4.0251,15.223,1.1219,2.4607,4.2557,7.4253,6.6826,12.397l-10.532,4.4026z" fill="#eeeeec"/>
   <path id="path10471" opacity="0.77380952" d="m-854.97-180.31c1.7738,4.294,4.1252,8.0777,4.1775,15.09,0.054,7.2449-6.1608,11.935-11.073,11.936-5.9468,0.001-11.179-5.0211-11.455-9.1804-0.24898-3.7543,1.0868-9.214,7.9818-9.1732,3.2922,0.0191,6.7131,2.8832,6.7312,7.1441,0.0195,4.5979-5.7406,5.0468-7.1932,3.8761-0.56422-0.4547-0.547-1.3544-0.0478-1.192,3.1014,1.0099,5.0174-0.98052,4.8751-2.9604-0.19315-2.6865-1.787-4.2846-4.6441-4.4206-4.1214-0.19577-5.2752,3.8126-5.1698,5.4392,0.12804,1.9779,1.8526,6.0463,7.2171,6.7889,2.533,0.35069,4.6322-0.40799,6.1656-1.8947,1.5334-1.487,2.3955-3.0244,2.5214-5.546,0.13026-2.6087-0.43928-4.1392-1.9995-7.5617-0.55728-1.2227-2.114-3.6882-3.3194-6.158l5.2316-2.1872z" transform="matrix(2.0131488,0,0,2.0131488,2819.7758,-685.76448)" filter="url(#filter7743)" fill="#33649d"/>
   <path id="path10473" d="m1098.3-1051.3c3.5708,8.6444,8.3047,16.262,8.41,30.379,0.1087,14.585-12.402,24.028-22.291,24.028-11.972,0.002-22.505-10.108-23.061-18.482-0.5012-7.558,2.188-18.549,16.069-18.467,6.6278,0.039,13.515,5.8042,13.551,14.382,0.039,9.2563-11.557,10.16-14.481,7.8031-1.1358-0.9154-1.1011-2.7265-0.096-2.3998,6.2436,2.0332,10.101-1.9739,9.8143-5.9597-0.3888-5.4084-3.5975-8.6256-9.3493-8.8992-8.297-0.3942-10.62,7.6753-10.408,10.95,0.2578,3.9818,3.7295,12.172,14.529,13.667,5.0992,0.706,9.3253-0.8214,12.412-3.8143,3.087-2.9934,4.8225-6.0885,5.076-11.165,0.2623-5.2518-0.8843-8.3328-4.0252-15.223-1.1219-2.4615-4.2557-7.425-6.6825-12.397l10.532-4.4032z" fill="#a9c4e3"/>
   <path id="path10475" fill="#eeeeec" d="m1057.5-1051.4c-9.8882,0-22.379,9.447-22.27,24.032,0.1052,14.117,4.8593,21.742,8.43,30.386l10.506-4.4038c-0.9381-1.9216-1.9645-3.7608-2.9569-5.5362h-2.3277v-4.215c-0.5718-1.0301-1.0691-1.9515-1.384-2.6422-3.1409-6.89-4.2885-9.973-4.0263-15.224,0.2536-5.0771,2.0089-8.1421,5.0958-11.135,3.087-2.9929,7.2942-4.5433,12.393-3.8376,5.1071,0.7076,8.556,2.9248,10.821,5.4733h2.139v3.1455c0.9737,1.8798,1.4859,3.6914,1.5728,5.0329,0.094,1.455-0.3647,3.8544-1.5728,6.0394v7.4864c5.7379-3.6324,7.0248-10.735,6.6686-16.105-0.5555-8.374-11.116-18.497-23.088-18.496z"/>
  </g>
  <g id="g10439" fill-rule="evenodd" transform="translate(-888.95229,1197.8579)">
   <path id="path9941" stroke-linejoin="miter" d="m1102.3-1060.9c-5.6442,2.3177-23.744,9.865-24.195,10.053-5.0638-4.1354-11.65-7.3485-18.472-7.7119-16.547-1.0406-31.766,13.654-31.814,29.956-0.7264,14.676,5.9719,28.25,12.023,41.217,5.0624-2.1121,23.471-9.7848,23.935-9.979,4.9699,4.1532,11.335,7.2137,17.97,7.6933,16.282,1.3662,31.414-12.7,32.241-28.618,1.1818-14.89-5.6824-28.664-11.447-41.979-0.084-0.2077-0.1577-0.4241-0.2416-0.6318z" stroke="#3b6aa3" stroke-linecap="butt" stroke-miterlimit="4" stroke-dasharray="none" stroke-width="2.41577864" fill="url(#linearGradient10170)"/>
   <path id="path9943" d="m1043.6-996.93c-3.5708-8.6438-8.3048-16.261-8.41-30.378-0.1087-14.585,12.402-24.028,22.291-24.029,11.972,0,22.505,10.109,23.061,18.483,0.5013,7.5572-2.188,18.548-16.069,18.466-6.6277-0.038-13.515-5.8042-13.551-14.382-0.039-9.2567,11.557-10.16,14.481-7.8031,1.1359,0.9153,1.1012,2.7268,0.096,2.3997-6.2436-2.0329-10.101,1.9737-9.8144,5.9597,0.3889,5.4084,3.5976,8.6262,9.3494,8.8999,8.297,0.3941,10.62-7.6752,10.408-10.95-0.2577-3.9818-3.7295-12.172-14.529-13.668-5.0992-0.7057-9.3254,0.8216-12.412,3.8145-3.087,2.9932-4.8225,6.0883-5.076,11.166-0.2623,5.2514,0.8843,8.3328,4.0251,15.223,1.1219,2.4607,4.2557,7.4253,6.6826,12.397l-10.532,4.4026z" fill="#eeeeec"/>
   <path id="path9945" opacity="0.77380952" d="m-854.97-180.31c1.7738,4.294,4.1252,8.0777,4.1775,15.09,0.054,7.2449-6.1608,11.935-11.073,11.936-5.9468,0.001-11.179-5.0211-11.455-9.1804-0.24898-3.7543,1.0868-9.214,7.9818-9.1732,3.2922,0.0191,6.7131,2.8832,6.7312,7.1441,0.0195,4.5979-5.7406,5.0468-7.1932,3.8761-0.56422-0.4547-0.547-1.3544-0.0478-1.192,3.1014,1.0099,5.0174-0.98052,4.8751-2.9604-0.19315-2.6865-1.787-4.2846-4.6441-4.4206-4.1214-0.19577-5.2752,3.8126-5.1698,5.4392,0.12804,1.9779,1.8526,6.0463,7.2171,6.7889,2.533,0.35069,4.6322-0.40799,6.1656-1.8947,1.5334-1.487,2.3955-3.0244,2.5214-5.546,0.13026-2.6087-0.43928-4.1392-1.9995-7.5617-0.55728-1.2227-2.114-3.6882-3.3194-6.158l5.2316-2.1872z" transform="matrix(2.0131488,0,0,2.0131488,2819.7758,-685.76448)" filter="url(#filter7743)" fill="#33649d"/>
   <path id="path9947" d="m1098.3-1051.3c3.5708,8.6444,8.3047,16.262,8.41,30.379,0.1087,14.585-12.402,24.028-22.291,24.028-11.972,0.002-22.505-10.108-23.061-18.482-0.5012-7.558,2.188-18.549,16.069-18.467,6.6278,0.039,13.515,5.8042,13.551,14.382,0.039,9.2563-11.557,10.16-14.481,7.8031-1.1358-0.9154-1.1011-2.7265-0.096-2.3998,6.2436,2.0332,10.101-1.9739,9.8143-5.9597-0.3888-5.4084-3.5975-8.6256-9.3493-8.8992-8.297-0.3942-10.62,7.6753-10.408,10.95,0.2578,3.9818,3.7295,12.172,14.529,13.667,5.0992,0.706,9.3253-0.8214,12.412-3.8143,3.087-2.9934,4.8225-6.0885,5.076-11.165,0.2623-5.2518-0.8843-8.3328-4.0252-15.223-1.1219-2.4615-4.2557-7.425-6.6825-12.397l10.532-4.4032z" fill="#a9c4e3"/>
   <path id="path9949" fill="#eeeeec" d="m1057.5-1051.4c-9.8882,0-22.379,9.447-22.27,24.032,0.1052,14.117,4.8593,21.742,8.43,30.386l10.506-4.4038c-0.9381-1.9216-1.9645-3.7608-2.9569-5.5362h-2.3277v-4.215c-0.5718-1.0301-1.0691-1.9515-1.384-2.6422-3.1409-6.89-4.2885-9.973-4.0263-15.224,0.2536-5.0771,2.0089-8.1421,5.0958-11.135,3.087-2.9929,7.2942-4.5433,12.393-3.8376,5.1071,0.7076,8.556,2.9248,10.821,5.4733h2.139v3.1455c0.9737,1.8798,1.4859,3.6914,1.5728,5.0329,0.094,1.455-0.3647,3.8544-1.5728,6.0394v7.4864c5.7379-3.6324,7.0248-10.735,6.6686-16.105-0.5555-8.374-11.116-18.497-23.088-18.496z"/>
   <path id="path10429" stroke-linejoin="miter" d="m1102.3-1060.9c-5.6442,2.3177-23.744,9.865-24.195,10.053-5.0638-4.1354-11.65-7.3485-18.472-7.7119-16.547-1.0406-31.766,13.654-31.814,29.956-0.7264,14.676,5.9719,28.25,12.023,41.217,5.0624-2.1121,23.471-9.7848,23.935-9.979,4.9699,4.1532,11.335,7.2137,17.97,7.6933,16.282,1.3662,31.414-12.7,32.241-28.618,1.1818-14.89-5.6824-28.664-11.447-41.979-0.084-0.2077-0.1577-0.4241-0.2416-0.6318z" stroke="#3b6aa3" stroke-linecap="butt" stroke-miterlimit="4" stroke-dasharray="none" stroke-width="2.41577864" fill="url(#linearGradient10170)"/>
   <path id="path10431" d="m1043.6-996.93c-3.5708-8.6438-8.3048-16.261-8.41-30.378-0.1087-14.585,12.402-24.028,22.291-24.029,11.972,0,22.505,10.109,23.061,18.483,0.5013,7.5572-2.188,18.548-16.069,18.466-6.6277-0.038-13.515-5.8042-13.551-14.382-0.039-9.2567,11.557-10.16,14.481-7.8031,1.1359,0.9153,1.1012,2.7268,0.096,2.3997-6.2436-2.0329-10.101,1.9737-9.8144,5.9597,0.3889,5.4084,3.5976,8.6262,9.3494,8.8999,8.297,0.3941,10.62-7.6752,10.408-10.95-0.2577-3.9818-3.7295-12.172-14.529-13.668-5.0992-0.7057-9.3254,0.8216-12.412,3.8145-3.087,2.9932-4.8225,6.0883-5.076,11.166-0.2623,5.2514,0.8843,8.3328,4.0251,15.223,1.1219,2.4607,4.2557,7.4253,6.6826,12.397l-10.532,4.4026z" fill="#eeeeec"/>
   <path id="path10433" opacity="0.77380952" d="m-854.97-180.31c1.7738,4.294,4.1252,8.0777,4.1775,15.09,0.054,7.2449-6.1608,11.935-11.073,11.936-5.9468,0.001-11.179-5.0211-11.455-9.1804-0.24898-3.7543,1.0868-9.214,7.9818-9.1732,3.2922,0.0191,6.7131,2.8832,6.7312,7.1441,0.0195,4.5979-5.7406,5.0468-7.1932,3.8761-0.56422-0.4547-0.547-1.3544-0.0478-1.192,3.1014,1.0099,5.0174-0.98052,4.8751-2.9604-0.19315-2.6865-1.787-4.2846-4.6441-4.4206-4.1214-0.19577-5.2752,3.8126-5.1698,5.4392,0.12804,1.9779,1.8526,6.0463,7.2171,6.7889,2.533,0.35069,4.6322-0.40799,6.1656-1.8947,1.5334-1.487,2.3955-3.0244,2.5214-5.546,0.13026-2.6087-0.43928-4.1392-1.9995-7.5617-0.55728-1.2227-2.114-3.6882-3.3194-6.158l5.2316-2.1872z" transform="matrix(2.0131488,0,0,2.0131488,2819.7758,-685.76448)" filter="url(#filter7743)" fill="#33649d"/>
   <path id="path10435" d="m1098.3-1051.3c3.5708,8.6444,8.3047,16.262,8.41,30.379,0.1087,14.585-12.402,24.028-22.291,24.028-11.972,0.002-22.505-10.108-23.061-18.482-0.5012-7.558,2.188-18.549,16.069-18.467,6.6278,0.039,13.515,5.8042,13.551,14.382,0.039,9.2563-11.557,10.16-14.481,7.8031-1.1358-0.9154-1.1011-2.7265-0.096-2.3998,6.2436,2.0332,10.101-1.9739,9.8143-5.9597-0.3888-5.4084-3.5975-8.6256-9.3493-8.8992-8.297-0.3942-10.62,7.6753-10.408,10.95,0.2578,3.9818,3.7295,12.172,14.529,13.667,5.0992,0.706,9.3253-0.8214,12.412-3.8143,3.087-2.9934,4.8225-6.0885,5.076-11.165,0.2623-5.2518-0.8843-8.3328-4.0252-15.223-1.1219-2.4615-4.2557-7.425-6.6825-12.397l10.532-4.4032z" fill="#a9c4e3"/>
   <path id="path10437" fill="#eeeeec" d="m1057.5-1051.4c-9.8882,0-22.379,9.447-22.27,24.032,0.1052,14.117,4.8593,21.742,8.43,30.386l10.506-4.4038c-0.9381-1.9216-1.9645-3.7608-2.9569-5.5362h-2.3277v-4.215c-0.5718-1.0301-1.0691-1.9515-1.384-2.6422-3.1409-6.89-4.2885-9.973-4.0263-15.224,0.2536-5.0771,2.0089-8.1421,5.0958-11.135,3.087-2.9929,7.2942-4.5433,12.393-3.8376,5.1071,0.7076,8.556,2.9248,10.821,5.4733h2.139v3.1455c0.9737,1.8798,1.4859,3.6914,1.5728,5.0329,0.094,1.455-0.3647,3.8544-1.5728,6.0394v7.4864c5.7379-3.6324,7.0248-10.735,6.6686-16.105-0.5555-8.374-11.116-18.497-23.088-18.496z"/>
  </g>
  <flowRoot id="flowRoot6492" font-weight="normal" xml:space="preserve" font-size="12px" font-style="normal" font-family="Bitstream Vera Sans" fill="#000000"><flowRegion id="flowRegion6494"><rect id="rect6496" y="-680.94" width="375.56" x="3084.2" height="111.9"/></flowRegion><flowPara id="flowPara6498"/></flowRoot>
  <text id="text6500" font-weight="normal" xml:space="preserve" transform="translate(-2.66397,63.877701)" font-style="normal" font-size="12px" y="-651.81781" x="3134.7473" font-family="Bitstream Vera Sans" fill="#000000"><tspan id="tspan6502" x="3134.7473" y="-651.81781"/></text>
 </g>
</svg>
