<?xml version="1.0" encoding="UTF-8" standalone="no"?>
<!-- Created with Inkscape (http://www.inkscape.org/) -->
<svg id="svg2" xmlns:rdf="http://www.w3.org/1999/02/22-rdf-syntax-ns#" xmlns="http://www.w3.org/2000/svg" height="131" width="680" version="1.0" xmlns:cc="http://creativecommons.org/ns#" xmlns:xlink="http://www.w3.org/1999/xlink" viewbox="0 0 680 131" xmlns:dc="http://purl.org/dc/elements/1.1/">
 <defs id="defs4">
  <filter id="filter26253" color-interpolation-filters="sRGB">
   <feGaussianBlur id="feGaussianBlur26255" stdDeviation="4.7847392"/>
  </filter>
  <linearGradient id="linearGradient2410" y2="14834" gradientUnits="userSpaceOnUse" x2="2229.2" gradientTransform="matrix(-0.5640686,0,0,0.5589889,1578.8964,-8161.8367)" y1="15000" x1="2030.6">
   <stop id="stop5721" stop-color="#3465a4" offset="0"/>
   <stop id="stop5723" stop-color="#80a6d8" offset="1"/>
  </linearGradient>
 </defs>
 <metadata id="metadata7">
  <rdf:RDF>
   <cc:Work rdf:about="">
    <dc:format>image/svg+xml</dc:format>
    <dc:type rdf:resource="http://purl.org/dc/dcmitype/StillImage"/>
    <dc:title/>
   </cc:Work>
   <cc:Work rdf:about="">
    <dc:format>image/svg+xml</dc:format>
    <dc:type rdf:resource="http://purl.org/dc/dcmitype/StillImage"/>
   </cc:Work>
  </rdf:RDF>
 </metadata>
 <g id="layer1" transform="translate(-305.6326,-112.04663)">
  <g id="g3483" opacity="0.26106196" fill-rule="evenodd" transform="matrix(-0.5640686,0,0,0.5589889,1774.5235,-7236.0471)" filter="url(#filter26253)" fill="#000">
   <path id="path3485" d="m2373.8,13160c-17.186,40.054-37.617,81.517-34.094,126.31,2.466,47.888,47.581,90.193,96.122,86.083,20.397-1.488,39.899-11.243,54.909-24.333,3.6464,5.984,12.278,5.493,17.732,9.212,17.422,7.337,34.845,14.672,52.268,22.007,18.04-39.009,38.009-79.848,35.844-124-0.1413-49.042-45.512-93.256-94.844-90.125-21.063,1.132-41.362,11.48-56.656,24.562-2.5138-5.844-10.532-4.903-15.055-8.274-18.468-7.83-36.945-15.64-55.476-23.319-0.25,0.625-0.4999,1.25-0.75,1.875z"/>
   <path id="path3487" d="m2386.6,13187c-10.646,26.006-24.759,48.922-25.073,91.391-0.3242,43.877,36.975,72.285,66.455,72.287,35.692,0,67.094-30.41,68.75-55.6,1.4944-22.738-6.5229-55.803-47.905-55.556-19.759,0.116-40.291,17.461-40.399,43.267-0.1167,27.847,34.454,30.565,43.172,23.475,3.3863-2.754,3.2829-8.203,0.2867-7.22-18.614,6.117-30.113-5.938-29.259-17.928,1.1592-16.271,10.725-25.95,27.873-26.773,24.736-1.186,31.661,23.09,31.028,32.941-0.7684,11.979-11.119,36.618-43.315,41.116-15.202,2.124-27.802-2.471-37.005-11.474-9.2032-9.006-14.377-18.317-15.133-33.589-0.7818-15.799,2.6364-25.068,12-45.796,3.3447-7.405,12.687-22.337,19.922-37.295l-31.399-13.246z"/>
   <path id="path3489" d="m2549.5,13351c10.646-26.005,24.759-48.921,25.072-91.39,0.3242-43.877-36.975-72.285-66.455-72.288-35.692,0-67.094,30.41-68.75,55.603-1.4944,22.735,6.5229,55.8,47.905,55.554,19.759-0.116,40.291-17.461,40.399-43.268,0.1168-27.847-34.454-30.564-43.172-23.474-3.3863,2.753-3.2828,8.203-0.2867,7.219,18.614-6.116,30.114,5.938,29.26,17.929-1.1592,16.271-10.725,25.951-27.873,26.774-24.736,1.186-31.661-23.09-31.028-32.942,0.7685-11.979,11.119-36.617,43.315-41.117,15.202-2.123,27.802,2.471,37.005,11.475,9.2031,9.005,14.377,18.316,15.133,33.59,0.7818,15.798-2.6363,25.068-12,45.796-3.3447,7.403-12.687,22.338-19.922,37.293l31.399,13.246z"/>
   <path id="path3491" d="m2386.6,13187c-10.646,26.006-24.738,48.942-25.052,91.412-0.3242,43.877,36.976,72.285,66.455,72.288,35.692,0,67.094-30.412,68.75-55.603,1.3265-20.181-4.894-48.516-35.236-54.456l-2.7253,14.343c18.037,3.892,23.313,23.671,22.757,32.32-0.7683,11.979-11.119,36.618-43.316,41.116-15.202,2.123-27.801-2.469-37.005-11.474-9.203-9.004-14.4-18.337-15.156-33.609-0.7816-15.799,2.6364-25.074,12-45.802,3.3447-7.404,12.701-22.334,19.936-37.292l-31.411-13.243z"/>
  </g>
  <path id="path3493" fill-rule="evenodd" fill="url(#linearGradient2410)" d="m431.39,113.36c9.6942,22.39,21.219,45.567,19.231,70.607-1.391,26.769-26.839,50.417-54.22,48.12-11.505-0.83176-22.506-6.2849-30.972-13.602-2.0568,3.345-6.9256,3.0707-10.002,5.1496-9.8271,4.1012-19.655,8.2014-29.483,12.302-10.176-21.806-21.44-44.634-20.218-69.315,0.0797-27.414,25.672-52.129,53.498-50.379,11.881,0.63303,23.331,6.4171,31.958,13.73,1.4179-3.2671,5.9408-2.7407,8.4919-4.6252,10.417-4.3769,20.84-8.7429,31.293-13.035,0.14099,0.34932,0.28198,0.69911,0.42306,1.0484z"/>
  <path id="path3495" fill-rule="evenodd" fill="#bad0e8" d="m424.17,128.45c6.0049,14.537,13.966,27.346,14.143,51.086,0.18291,24.527-20.857,40.406-37.485,40.407-20.133,0.004-37.846-16.999-38.78-31.079-0.84291-12.71,3.6794-31.193,27.022-31.055,11.146,0.0647,22.727,9.7606,22.788,24.186,0.0658,15.566-19.434,17.085-24.352,13.122-1.9101-1.5394-1.8518-4.585-0.16171-4.0356,10.5,3.4191,16.986-3.3195,16.504-10.022-0.65388-9.095-6.0498-14.505-15.722-14.965-13.953-0.66276-17.859,12.907-17.502,18.414,0.43347,6.6961,6.2717,20.469,24.433,22.983,8.5752,1.1872,15.682-1.3812,20.873-6.4142,5.1912-5.034,8.1098-10.239,8.5361-18.775,0.441-8.8316-1.4872-14.013-6.769-25.599-1.8866-4.1394-7.1566-12.486-11.238-20.847l17.711-7.4046z"/>
  <path id="path3497" fill-rule="evenodd" fill="#eeeeec" d="m332.27,219.94c-6.0048-14.536-13.966-27.346-14.143-51.086-0.18285-24.527,20.857-40.406,37.485-40.408,20.133-0.002,37.846,16.999,38.78,31.081,0.84296,12.709-3.6794,31.191-27.022,31.054-11.146-0.0647-22.727-9.7606-22.788-24.186-0.0659-15.566,19.434-17.085,24.352-13.122,1.9102,1.5394,1.8518,4.5855,0.16175,4.0356-10.5-3.4186-16.986,3.319-16.504,10.022,0.65392,9.095,6.0498,14.506,15.722,14.966,13.953,0.66276,17.859-12.907,17.502-18.414-0.43346-6.6961-6.2718-20.468-24.433-22.984-8.5752-1.1867-15.682,1.3817-20.873,6.4147-5.1911,5.0335-8.1096,10.238-8.536,18.776-0.441,8.8312,1.487,14.013,6.7689,25.599,1.8867,4.138,7.1566,12.487,11.238,20.847l-17.711,7.4037z"/>
  <path id="path3499" fill-rule="evenodd" fill="#bad0e8" d="m424.18,128.45c6.0048,14.537,13.954,27.358,14.131,51.098,0.18291,24.527-20.857,40.406-37.485,40.408-20.133,0.002-37.846-17-38.78-31.082-0.74825-11.281,2.7606-27.119,19.875-30.44l1.5373,8.0178c-10.174,2.1757-13.15,13.232-12.837,18.067,0.43337,6.6961,6.2718,20.469,24.433,22.983,8.5752,1.1863,15.682-1.3803,20.873-6.4138,5.1911-5.0335,8.1224-10.251,8.5488-18.787,0.4409-8.8316-1.4871-14.016-6.769-25.603-1.8867-4.1385-7.1645-12.484-11.246-20.845l17.718-7.4027z"/>
  <g id="flowRoot3988" style="letter-spacing:0px;word-spacing:0px;" font-weight="normal" transform="matrix(1.7342854,0,0,1.7342854,127.51787,77.304516)" font-size="40px" font-style="normal" font-family="Sans" line-height="125%" fill="#cdcdd4">
   <path id="path3240" d="m203.93,42.241,5.8789,0,7.4414,19.844,7.4805-19.844,5.8789,0,0,29.16-3.8477,0,0-25.605-7.5195,20-3.9648,0-7.5195-20,0,25.605-3.8281,0,0-29.16"/>
   <path id="path3242" d="m246.78,52.046c-1.9271,0.000019-3.4505,0.75523-4.5703,2.2656-1.1198,1.4974-1.6797,3.5547-1.6797,6.1719s0.55338,4.681,1.6602,6.1914c1.1198,1.4974,2.6497,2.2461,4.5898,2.2461,1.914,0.000002,3.431-0.7552,4.5508-2.2656s1.6797-3.5677,1.6797-6.1719c-0.00002-2.5911-0.55991-4.6419-1.6797-6.1523-1.1198-1.5234-2.6367-2.2851-4.5508-2.2852m0-3.0469c3.125,0.000022,5.5794,1.0156,7.3633,3.0469,1.7838,2.0313,2.6758,4.8438,2.6758,8.4375-0.00003,3.5807-0.89195,6.3932-2.6758,8.4375-1.7839,2.0312-4.2383,3.0469-7.3633,3.0469-3.138-0.000001-5.599-1.0156-7.3828-3.0469-1.7708-2.0443-2.6562-4.8568-2.6562-8.4375,0-3.5937,0.88541-6.4062,2.6562-8.4375,1.7838-2.0312,4.2448-3.0469,7.3828-3.0469"/>
   <path id="path3244" d="m280.94,58.198,0,13.203-3.5938,0,0-13.086c-0.00002-2.0703-0.40366-3.6198-1.2109-4.6484-0.80731-1.0286-2.0182-1.5429-3.6328-1.543-1.9401,0.000019-3.4701,0.61851-4.5898,1.8555-1.1198,1.237-1.6797,2.9232-1.6797,5.0586v12.363h-3.6133v-21.875h3.6133v3.3984c0.85937-1.3151,1.8685-2.2982,3.0273-2.9492,1.1719-0.65102,2.5195-0.97654,4.043-0.97656,2.513,0.000022,4.414,0.78127,5.7031,2.3438,1.289,1.5495,1.9336,3.8347,1.9336,6.8555"/>
   <path id="path3246" d="m296.62,52.046c-1.9271,0.000019-3.4505,0.75523-4.5703,2.2656-1.1198,1.4974-1.6797,3.5547-1.6797,6.1719s0.55338,4.681,1.6602,6.1914c1.1198,1.4974,2.6497,2.2461,4.5898,2.2461,1.914,0.000002,3.431-0.7552,4.5508-2.2656s1.6797-3.5677,1.6797-6.1719c-0.00002-2.5911-0.55991-4.6419-1.6797-6.1523-1.1198-1.5234-2.6367-2.2851-4.5508-2.2852m0-3.0469c3.125,0.000022,5.5794,1.0156,7.3633,3.0469,1.7838,2.0313,2.6758,4.8438,2.6758,8.4375-0.00003,3.5807-0.89195,6.3932-2.6758,8.4375-1.7839,2.0312-4.2383,3.0469-7.3633,3.0469-3.138-0.000001-5.599-1.0156-7.3828-3.0469-1.7708-2.0443-2.6562-4.8568-2.6562-8.4375,0-3.5937,0.88541-6.4062,2.6562-8.4375,1.7838-2.0312,4.2448-3.0469,7.3828-3.0469"/>
  </g>
  <g id="text3996" style="letter-spacing:0px;word-spacing:0px;" font-family="Sans" font-size="69.37142181px" line-height="125%" font-style="normal" font-weight="bold" fill="#cdcdd4">
   <path id="path3225" d="m686.49,160.79,0,30.858,4.6744,0c5.3293,0.00001,9.394-1.321,12.194-3.9631,2.8227-2.6421,4.234-6.481,4.2341-11.517-0.00004-5.0131-1.4001-8.8295-4.2002-11.449-2.8002-2.6194-6.8762-3.9292-12.228-3.9292h-4.6744m-13.041-9.857,13.752,0c7.6778,0.00005,13.391,0.5533,17.14,1.6598,3.7711,1.084,7.0003,2.9357,9.6876,5.5551,2.371,2.2808,4.1324,4.9116,5.2842,7.8924,1.1516,2.9808,1.7274,6.3568,1.7275,10.128-0.00006,3.8164-0.57589,7.2262-1.7275,10.23-1.1517,2.9808-2.9131,5.6116-5.2842,7.8924-2.7099,2.6195-5.9616,4.4825-9.7554,5.589-3.7938,1.0839-9.4844,1.6259-17.072,1.6259h-13.752v-50.572"/>
   <path id="path3227" d="m768.36,182.44,0,3.455-28.352,0c0.29354,2.8453,1.321,4.9793,3.0824,6.402s4.2228,2.134,7.3843,2.134c2.5517,0,5.1599-0.3726,7.8246-1.1178,2.6872-0.76777,5.4422-1.9194,8.265-3.455v9.3489c-2.8679,1.0839-5.7358,1.8969-8.6037,2.4388-2.8679,0.56454-5.7358,0.84681-8.6037,0.84681-6.8649,0-12.206-1.7388-16.022-5.2164-3.7938-3.5002-5.6906-8.4004-5.6906-14.701-0.00001-6.1874,1.863-11.054,5.589-14.599,3.7486-3.5453,8.8972-5.318,15.446-5.318,5.9616,0.00004,10.726,1.7953,14.294,5.3858,3.5905,3.5906,5.3857,8.3892,5.3858,14.396m-12.465-4.0309c-0.00003-2.3033-0.67748-4.155-2.0324-5.5551-1.3324-1.4226-3.0824-2.134-5.2503-2.134-2.3485,0.00003-4.2567,0.6662-5.7245,1.9985-1.4678,1.3098-2.3824,3.2066-2.7437,5.6906h15.751"/>
   <path id="path3229" d="m772.73,163.57,12.126,0,9.4505,26.218,9.4166-26.218,12.16,0-14.938,37.937-13.312,0-14.904-37.937"/>
   <path id="path3231" d="m860.63,182.44,0,3.455-28.352,0c0.29355,2.8453,1.321,4.9793,3.0824,6.402s4.2228,2.134,7.3843,2.134c2.5517,0,5.1599-0.3726,7.8246-1.1178,2.6872-0.76777,5.4422-1.9194,8.265-3.455v9.3489c-2.8679,1.0839-5.7358,1.8969-8.6037,2.4388-2.8679,0.56454-5.7358,0.84681-8.6037,0.84681-6.8649,0-12.205-1.7388-16.022-5.2164-3.7938-3.5002-5.6906-8.4004-5.6906-14.701,0-6.1874,1.863-11.054,5.589-14.599,3.7486-3.5453,8.8972-5.318,15.446-5.318,5.9616,0.00004,10.726,1.7953,14.294,5.3858,3.5905,3.5906,5.3857,8.3892,5.3858,14.396m-12.465-4.0309c-0.00003-2.3033-0.67749-4.155-2.0324-5.5551-1.3324-1.4226-3.0824-2.134-5.2503-2.134-2.3485,0.00003-4.2567,0.6662-5.7245,1.9985-1.4678,1.3098-2.3824,3.2066-2.7437,5.6906h15.751"/>
   <path id="path3233" d="m869.77,148.8,12.126,0,0,52.706-12.126,0,0-52.706"/>
   <path id="path3235" d="m911.67,171.33c-2.6873,0.00003-4.7422,0.97105-6.1648,2.9131-1.4001,1.9195-2.1001,4.697-2.1001,8.3327-0.00001,3.6357,0.70003,6.4246,2.1001,8.3666,1.4226,1.9195,3.4776,2.8792,6.1648,2.8792,2.642,0,4.6631-0.95972,6.0632-2.8792,1.4-1.942,2.1001-4.7309,2.1001-8.3666-0.00004-3.6357-0.70007-6.4132-2.1001-8.3327-1.4001-1.942-3.4212-2.913-6.0632-2.9131m0-8.6714c6.5261,0.00004,11.618,1.7614,15.277,5.2842,3.6808,3.5228,5.5212,8.4005,5.5213,14.633-0.00005,6.2326-1.8405,11.11-5.5213,14.633-3.6583,3.5228-8.7505,5.2842-15.277,5.2842-6.5488,0-11.675-1.7614-15.378-5.2842-3.6808-3.5228-5.5213-8.4004-5.5213-14.633s1.8404-11.11,5.5213-14.633c3.7034-3.5227,8.8295-5.2841,15.378-5.2842"/>
   <path id="path3237" d="m953.44,196.02,0,19.917-12.126,0,0-52.367,12.126,0,0,5.5551c1.671-2.213,3.5227-3.8389,5.5551-4.8777,2.0323-1.0613,4.3696-1.592,7.0117-1.592,4.6744,0.00004,8.5133,1.863,11.517,5.589,3.0033,3.7034,4.505,8.4795,4.5051,14.328-0.00005,5.8487-1.5017,10.636-4.5051,14.362-3.0034,3.7034-6.8423,5.5551-11.517,5.5551-2.6421,0-4.9793-0.51938-7.0117-1.5581-2.0324-1.0614-3.8841-2.6985-5.5551-4.9116m8.0617-24.558c-2.5969,0.00003-4.5954,0.95976-5.9955,2.8792-1.3775,1.8969-2.0662,4.6406-2.0662,8.2311-0.00002,3.5905,0.68872,6.3455,2.0662,8.265,1.4001,1.8969,3.3986,2.8453,5.9955,2.8453s4.5728-0.94843,5.9277-2.8453c1.3775-1.8969,2.0662-4.6518,2.0662-8.265-0.00004-3.6131-0.68878-6.3681-2.0662-8.265-1.3549-1.8968-3.3308-2.8453-5.9277-2.8453"/>
  </g>
 </g>
 <path id="path22354" stroke-linejoin="miter" d="m5013.5-22111,0-100,43.372-73.913,39.709-16.338-39.709,16.338,4.6421-45.671-4.6421,45.671-43.372,73.913-21.795-46.548,1.3556-44.428-1.3556,44.428-35.842-24.64,35.842,24.64,21.795,46.548,0,100" stroke="#000" stroke-linecap="butt" stroke-width="1px" fill="none"/>
</svg>
